<svg width="113" height="35" viewBox="0 0 113 35" fill="none" xmlns="http://www.w3.org/2000/svg">
<path d="M52.4862 23.4156L56.1879 4.85846C59.9324 4.85846 62.7337 8.30295 62.0048 11.9771L58.3031 30.5343C54.5586 30.5343 51.7573 27.1041 52.4862 23.4156Z" fill="#FDFEFF"/>
<path d="M31.7482 25.3675L35.8358 4.85846C39.5803 4.85846 42.3816 8.2886 41.6527 11.9771L39.123 24.7791H45.4687C48.4987 24.7791 50.7568 27.5634 50.1566 30.5343H35.9787C33.2489 30.5343 31.2051 28.037 31.7482 25.3675Z" fill="#FDFEFF"/>
<path d="M99.9506 18.4642L112.028 28.9986C109.269 31.137 105.396 31.0222 102.766 28.7402L94.148 21.2198L93.219 20.4161C92.7616 20.0142 92.4472 19.4688 92.3615 18.8804C92.3472 18.7369 92.3329 18.5933 92.3329 18.4498V18.4355C92.3329 17.7035 92.6759 17.0146 93.219 16.541L94.2766 15.6225L107.283 4.28436C109.726 6.19318 109.841 9.8673 107.497 11.9053L99.9506 18.4642Z" fill="#FDFEFF"/>
<path d="M91.2895 11.8336L88.2596 27.0611C87.8594 29.0847 86.0872 30.5343 84.0434 30.5343C82.5427 30.5343 81.1421 29.7449 80.356 28.4389L73.1527 16.4406L70.3515 30.5199C66.6927 30.5199 63.9343 27.1472 64.6489 23.5448L67.6788 8.31731C68.079 6.29367 69.8512 4.84412 71.895 4.84412C73.3957 4.84412 74.7963 5.63348 75.5824 6.92516L82.7857 18.8948L85.5727 4.84412C89.26 4.85847 92.0042 8.2312 91.2895 11.8336Z" fill="#FDFEFF"/>
<path d="M18.6423 22.0953C20.0429 20.617 21.415 19.1675 22.8299 17.6748C24.3734 18.9378 26.1028 19.9281 27.0175 21.7365C28.4753 24.6212 28.361 27.4055 26.503 30.075C25.9313 30.9074 25.3024 31.7255 24.6021 32.4431C21.8723 35.2848 17.4131 35.5575 14.2974 33.132C10.41 30.1037 6.56535 27.0324 2.74933 23.9036C-0.309204 21.392 -0.895185 16.8998 1.39157 13.6419C2.14906 12.5655 2.978 11.5035 3.93558 10.628C6.50818 8.27427 10.4957 8.08769 13.3399 10.1113C14.5976 11.0155 15.7981 12.0058 16.9987 12.9387C15.6409 14.3308 14.3403 15.6799 13.0397 17.029C12.7539 17.3304 12.4966 17.1869 12.2394 16.986C11.5676 16.4693 10.9102 15.9383 10.2527 15.4216C9.15224 14.5605 8.36617 14.6609 7.48005 15.766C7.2085 16.1105 6.93694 16.4406 6.67969 16.785C5.87932 17.8614 5.95078 18.6221 6.99411 19.4689C8.53767 20.7175 10.0955 21.9518 11.6534 23.2004C13.6686 24.8078 15.6695 26.4152 17.6847 28.0083C18.9281 28.9986 19.657 28.9125 20.6432 27.7069C20.9433 27.3338 21.2434 26.9606 21.515 26.5731C22.1296 25.6976 22.0295 24.8509 21.2006 24.1763L18.6423 22.0953Z" fill="#FDFEFF"/>
<path d="M6.72256 8.27425C7.82306 7.14044 8.90927 5.97792 10.0241 4.85846C10.853 3.99734 11.7105 3.19363 12.5681 2.36121C15.841 -0.824942 20.6003 -0.781886 23.816 2.46167C24.9737 3.62419 26.1743 4.758 26.7317 6.37978C27.7893 9.43676 27.3176 12.2498 25.0738 14.5748C21.8437 17.9188 18.4708 21.1193 15.1693 24.3916C14.7119 24.8508 14.4118 24.8078 13.9401 24.4203C12.5538 23.2578 11.1246 22.1383 9.73822 21.0332C12.6681 18.1628 15.5694 15.3211 18.4708 12.465C19.1568 11.8049 19.8285 11.1447 20.5002 10.4558C21.3292 9.59464 21.3292 8.81963 20.5288 7.94415C20.1429 7.52794 19.7571 7.11173 19.3569 6.73858C18.5708 6.00663 17.799 5.99227 16.9987 6.70988C16.0268 7.5997 15.0549 8.50388 14.1116 9.40806C13.8544 9.65204 13.6543 9.73816 13.3399 9.49417C11.7248 8.20249 9.85256 8.03026 7.88023 8.23119C7.63726 8.2599 7.40859 8.2886 7.16562 8.30295C7.0227 8.3173 6.89407 8.2886 6.75115 8.3173C6.70827 8.3173 6.69398 8.2886 6.72256 8.27425Z" fill="#FDFEFF"/>
</svg>
