<svg width="395" height="394" viewBox="0 0 395 394" fill="none" xmlns="http://www.w3.org/2000/svg">
<path opacity="0.1" d="M0.1182 27.0678C2.7974 27.777 5.4766 28.4862 8.1164 29.1954C11.3078 30.0622 14.4992 30.9684 17.6906 31.8746C18.2816 32.0322 18.6756 32.0716 19.0302 31.4412C19.3848 30.8502 19.9758 30.3774 20.5668 29.7864C16.745 19.9758 12.8838 10.1258 9.0226 0.2758C9.85 -0.0394 10.244 0.2758 10.5198 1.0244C14.1052 10.2046 17.6906 19.4242 21.276 28.6044C21.473 29.0772 21.6306 29.5106 22.3398 29.4318C23.837 29.2348 25.0978 29.7864 26.1616 30.9684C28.4862 29.5106 30.732 28.0922 33.0172 26.6738C40.4638 22.0246 47.9104 17.3754 55.357 12.7262C55.948 12.3716 56.1056 12.0564 55.948 11.3472C55.7904 10.4804 55.9086 9.5742 55.9086 8.5104C51.22 5.91 46.3738 3.152 41.3306 0.2758C42.5914 0.1576 43.4976 0.197 44.4826 0.7486C48.265 2.955 52.0868 5.0826 55.8692 7.2496C56.4208 7.5648 56.7754 7.6436 57.2876 7.1314C57.6816 6.7374 58.2332 6.3434 58.7454 6.2252C59.6516 6.0282 59.7304 5.516 59.7304 4.7674C59.691 3.2702 59.7304 1.773 59.7304 0.2364C60.1244 0.2364 60.4002 0.2364 60.8336 0.2364C60.8336 1.8518 60.873 3.4278 60.8336 5.0432C60.8336 5.6736 60.9912 5.9888 61.661 6.1858C63.4734 6.7374 64.616 8.1952 64.6554 10.047C64.6554 10.7562 65.0494 10.8744 65.5616 10.9926C71.8262 12.3716 78.0908 13.7506 84.3554 15.169C105.671 19.897 127.026 24.6644 148.341 29.3924C152.399 30.2986 156.457 31.2048 160.555 32.111C160.87 32.1898 161.185 32.1898 161.54 32.2292C161.619 32.111 161.658 31.9928 161.737 31.8746C145.859 21.3942 129.941 10.9138 113.905 0.3152C114.93 0.1576 115.718 0.1182 116.545 0.6698C131.596 10.638 146.647 20.5668 161.698 30.4956C161.895 30.6138 162.092 30.732 162.289 30.8502C162.88 30.4168 163.431 30.0228 164.101 29.55C161.737 19.8576 159.334 10.0864 156.891 0.2364C157.285 0.2364 157.639 0.2364 158.033 0.2364C158.743 3.1126 159.452 5.9888 160.161 8.865C161.776 15.4842 163.392 22.064 165.007 28.6832C165.125 29.156 165.283 29.4318 165.874 29.4318C167.647 29.4318 168.908 30.338 169.696 31.8746C169.972 32.4262 170.247 32.5838 170.878 32.4656C185.259 30.338 199.64 28.2498 214.021 26.1616C219.734 25.3342 225.407 24.4674 231.16 23.64C231.278 23.049 231.357 22.4974 231.475 21.8276C218.591 14.6962 205.904 7.5648 193.178 0.394C194.203 0.0394 194.991 0.1182 195.857 0.6304C207.559 7.2496 219.3 13.8294 231.002 20.4486C231.278 20.6062 231.554 20.7244 231.751 20.8426C232.46 20.3698 233.13 19.9758 233.721 19.4636C233.918 19.2666 233.997 18.7544 233.918 18.4392C232.933 13.0808 231.948 7.683 230.963 2.3246C230.845 1.6548 230.726 0.985 230.608 0.2758C231.002 0.2758 231.278 0.2364 231.672 0.2364C232.854 6.5798 233.997 12.8444 235.179 19.109C236.991 19.4636 236.991 19.4636 237.779 17.927C240.734 12.214 243.728 6.5404 246.644 0.8274C246.999 0.0788 247.511 0.2364 248.22 0.2758C247.196 2.2458 246.211 4.1764 245.226 6.0676C243.019 10.3228 240.773 14.6174 238.528 18.8726C238.055 19.7788 238.055 20.3698 239.119 20.882C241.404 19.5818 243.807 18.2028 246.211 16.8238C255.627 11.3866 265.004 5.9494 274.46 0.591C275.091 0.2364 275.958 0.3152 276.706 0.197C276.746 0.2758 276.746 0.3546 276.785 0.4334C276.509 0.6304 276.273 0.788 275.997 0.9456C264.177 7.7618 252.318 14.578 240.498 21.3942C239.907 21.7488 239.513 22.064 239.828 22.8126C239.946 23.049 239.946 23.3642 239.867 23.64C239.552 24.8614 240.222 25.3342 241.207 25.7676C251.372 30.4956 261.498 35.3024 271.624 40.0698C272.53 40.5032 273.397 40.8972 274.342 41.3306C275.209 40.2668 276.194 39.5182 277.534 39.3606C277.731 39.3212 278.046 38.9272 278.046 38.6514C278.519 33.9234 278.913 29.2348 279.346 24.5068C280.055 16.7056 280.764 8.9044 281.513 1.0244C281.158 0.8274 280.764 0.6698 280.173 0.3546C281.789 0.3546 283.128 0.3546 284.704 0.3546C284.35 0.5516 284.192 0.7092 284.035 0.7092C282.537 0.6698 282.537 1.773 282.419 2.8368C281.789 10.0864 281.119 17.3754 280.449 24.625C280.016 29.5106 279.543 34.3962 279.07 39.3212C280.331 39.7546 281.434 40.4244 282.025 41.6458C282.183 41.961 282.38 42.2762 282.38 42.5914C282.301 43.8916 283.128 44.0886 284.192 44.2856C298.297 46.886 312.363 49.5652 326.468 52.205C329.148 52.7172 331.827 53.19 334.585 53.7022C335.176 52.3626 336.082 51.3776 337.461 50.826C337.658 50.7472 337.737 50.1956 337.737 49.8804C337.382 46.492 337.028 43.1036 336.673 39.7152C335.964 33.2142 335.215 26.7132 334.506 20.2122C334.467 19.897 334.427 19.6212 334.388 19.2666C332.615 19.0696 331.236 18.2816 330.487 16.6662C330.29 16.1934 330.054 15.6418 330.133 15.2084C330.33 14.0658 329.699 13.7112 328.754 13.3566C316.618 9.1014 304.523 4.8462 292.427 0.591C292.23 0.5122 292.072 0.4334 291.875 0.3546C291.915 0.2364 291.915 0.1182 291.954 0C293.333 0.2364 294.791 0.2758 296.052 0.7092C307.281 4.6098 318.47 8.5892 329.699 12.5292C329.975 12.608 330.251 12.6868 330.645 12.5686C326.193 8.3134 321.465 4.4128 316.737 0.2364C317.682 0.1182 318.352 0.1576 319.022 0.7486C322.962 4.2158 326.981 7.6436 330.96 11.0714C331.118 11.1896 331.275 11.3078 331.433 11.1896C332.418 10.9532 333.442 10.5986 334.427 10.4804C335.136 10.4016 335.136 9.8894 335.255 9.4954C335.924 7.0132 336.515 4.531 337.146 2.0488C337.303 1.4578 337.461 0.8668 337.619 0.2364C337.973 0.2364 338.328 0.2364 338.722 0.2364C337.816 3.743 336.949 7.1708 336.082 10.638C337.776 11.5442 338.84 12.805 338.84 14.8932C340.692 15.169 342.504 15.4842 344.356 15.76C348.926 16.4298 353.536 17.0996 358.107 17.8088C358.934 17.927 359.564 17.8876 359.84 16.942C359.88 16.745 359.998 16.548 360.155 16.4298C361.298 15.6812 360.825 14.9326 360.313 14.0264C357.91 9.6136 355.585 5.1614 353.26 0.7092C353.182 0.591 353.182 0.4728 353.103 0.3152C353.93 0 354.324 0.2758 354.679 0.985C356.964 5.3978 359.328 9.8106 361.653 14.2234C361.928 14.7356 362.165 14.8932 362.835 14.8144C363.741 14.6962 364.726 14.8932 365.868 14.972C366.932 13.4748 368.154 11.7412 369.375 10.047C371.542 7.0132 373.709 3.9794 375.797 0.9062C376.27 0.197 376.782 0.0788 377.61 0.3152C373.985 5.516 370.36 10.638 366.696 15.8388C367.602 16.8238 368.114 17.8876 368.114 19.2666C368.114 19.503 368.548 19.897 368.863 19.9758C373.906 21.3942 378.989 22.8126 384.071 24.1916C387.105 25.019 390.139 25.8858 393.173 26.7132C393.961 26.9102 394.158 27.3042 393.882 28.0922C385.214 25.6888 376.585 23.2854 368.154 20.9608C367.208 21.7882 366.381 22.458 365.593 23.1672C365.435 23.3248 365.356 23.7582 365.435 24.034C366.459 28.6438 367.523 33.2142 368.587 37.824C370.518 46.098 372.448 54.372 374.339 62.6854C374.536 63.5128 374.733 63.9856 375.758 63.9856C376.546 63.9856 377.334 64.4978 378.319 64.8918C383.362 60.7154 388.563 56.3814 393.842 52.008C394.158 52.9142 393.882 53.4658 393.212 54.0174C388.681 57.7604 384.189 61.5034 379.658 65.2464C379.107 65.7192 379.028 66.0344 379.225 66.783C379.461 67.6498 379.461 68.6742 379.343 69.5804C379.225 70.2108 379.264 70.526 379.816 70.92C384.268 73.9932 388.72 77.1452 393.212 80.2184C393.882 80.6518 394.197 81.1246 393.882 82.0702C388.72 78.4848 383.598 74.8994 378.437 71.314C377.452 72.2202 376.388 72.7324 375.049 72.693C374.812 72.693 374.418 73.1264 374.339 73.4416C371.778 82.8976 369.257 92.393 366.735 101.849C361.653 120.84 356.57 139.831 351.487 158.821C351.29 159.57 351.527 159.846 352.039 160.397C353.024 161.422 353.733 161.067 354.758 160.516C366.144 154.172 377.57 147.868 388.996 141.564C389.587 141.249 389.863 141.013 389.745 140.185C389.311 137.309 391.242 134.984 393.961 135.063C393.961 137.939 393.961 140.816 393.961 143.771C392.503 143.81 391.439 143.101 390.454 142.037C388.642 143.022 386.829 144.007 385.017 145.031C374.93 150.626 364.844 156.221 354.718 161.776C354.048 162.17 353.773 162.446 353.891 163.352C354.206 165.086 353.576 166.623 352.078 167.608C351.487 168.002 351.566 168.356 351.724 168.868C353.93 175.527 356.097 182.186 358.304 188.844C362.283 200.979 366.262 213.115 370.242 225.25C370.439 225.841 370.636 226.235 371.424 226.235C372.094 226.235 372.724 226.589 373.433 226.786C380.171 220.404 386.987 213.942 393.882 207.441C394.197 208.387 393.961 208.938 393.33 209.49C387.341 215.124 381.353 220.798 375.364 226.432C375.009 226.786 374.576 227.102 374.221 227.417C374.339 227.456 374.458 227.496 374.576 227.496C374.773 228.756 375.127 230.057 375.127 231.317C375.088 232.696 374.103 233.642 372.921 234.469C374.221 236.991 375.482 239.513 376.782 242.034C379.343 247.038 381.944 252.042 384.505 257.085C384.82 257.676 385.056 258.031 385.884 257.834C386.514 257.676 387.263 257.755 387.893 257.991C388.602 258.267 388.878 257.991 389.233 257.518C390.769 255.391 392.306 253.263 393.961 250.978C394.118 252.042 394.118 252.751 393.527 253.5C392.148 255.233 390.927 257.085 389.627 258.858C391.557 261.458 391.478 263.034 389.193 265.871C390.612 268.511 391.991 271.151 393.488 273.751C394.079 274.776 394.197 275.761 394 277.1C392.7 274.657 391.478 272.451 390.296 270.245C389.666 269.102 389.075 267.959 388.405 266.817C388.287 266.58 387.893 266.383 387.657 266.423C385.135 266.699 383.52 265.95 382.574 264.059C381.668 262.207 382.062 260.355 383.795 258.582C383.835 258.543 383.874 258.464 383.992 258.346C383.401 257.203 382.81 256.021 382.219 254.839C378.949 248.456 375.679 242.074 372.409 235.691C372.054 234.982 371.66 234.627 370.872 234.745C370.557 234.785 370.202 234.745 369.769 234.745C369.139 237.03 368.548 239.355 367.917 241.64C363.898 256.888 359.88 272.136 355.821 287.384C355.664 287.935 355.624 288.29 356.255 288.644C357.476 289.314 358.107 290.457 358.382 291.836C370.242 291.836 382.101 291.836 394 291.836C394 292.23 394 292.506 394 292.9C382.141 292.9 370.281 292.9 358.461 292.9C358.225 293.569 358.028 294.121 357.791 294.751C360.707 297.155 363.662 299.519 366.617 301.922C375.561 309.172 384.544 316.461 393.488 323.75C393.882 324.104 394.039 324.774 394.315 325.286C394.197 325.365 394.079 325.444 393.961 325.523C381.668 315.555 369.375 305.586 357.437 295.894C356.018 296.249 354.876 296.485 353.773 296.8C353.457 296.879 353.142 297.234 353.063 297.549C351.133 303.813 349.202 310.078 347.311 316.343C345.853 321.071 344.435 325.799 343.016 330.566C342.938 330.842 342.977 331.354 343.135 331.512C345.341 333.403 345.735 334.545 344.986 337.343C360.195 347.193 375.443 357.043 390.69 366.893C391.242 366.538 391.715 366.105 392.266 365.868C392.818 365.632 393.409 365.514 394.079 365.317C394.079 368.351 394.079 371.227 394.079 374.182C393.764 374.182 393.409 374.221 393.173 374.103C392.266 373.63 391.794 374.064 391.321 374.812C387.105 380.84 382.81 386.869 378.555 392.897C378.358 393.173 378.279 393.488 378.122 393.803C377.649 393.803 377.176 393.803 376.703 393.803C376.822 393.606 376.861 393.37 377.019 393.173C380.328 388.445 383.677 383.756 386.987 379.028C388.366 377.058 389.745 375.088 391.084 373.197C390.69 372.488 390.375 371.857 389.981 371.306C389.784 371.03 389.39 370.754 389.075 370.793C386.396 370.99 383.717 371.227 381.037 371.424C371.936 372.212 362.835 373 353.773 373.788C351.763 373.945 349.793 374.142 348.178 374.261C347.508 375.443 347.075 376.428 346.444 377.216C346.05 377.728 346.05 378.043 346.326 378.555C347.587 380.88 348.848 383.244 350.069 385.608C351.487 388.326 352.906 391.045 354.324 393.764C353.93 393.764 353.497 393.764 353.103 393.764C350.502 388.799 347.863 383.835 345.262 378.831C344.75 377.846 343.962 378.673 343.332 378.555C343.174 378.516 342.741 378.949 342.662 379.225C341.401 384.071 340.18 388.917 338.958 393.764C338.564 393.764 338.131 393.764 337.737 393.764C339.037 388.76 340.337 383.795 341.598 378.792C341.637 378.555 341.401 378.122 341.165 377.964C339.825 377.058 338.998 375.876 339.037 374.221C339.076 373.512 338.761 373.315 338.17 373.118C316.934 366.853 295.697 360.589 274.46 354.324C274.145 354.245 273.751 354.364 273.397 354.403C273.594 354.718 273.712 355.112 273.948 355.349C284.429 364.411 294.948 373.433 305.429 382.456C309.802 386.199 314.136 389.981 318.51 393.764C317.879 393.764 317.288 393.764 316.658 393.764C316.461 393.527 316.303 393.291 316.067 393.094C303.616 382.377 291.166 371.66 278.716 360.904C276.667 359.131 274.579 357.358 272.53 355.585C272.175 355.861 271.86 356.058 271.584 356.255C271.584 356.412 271.584 356.491 271.584 356.531C274.815 365.79 278.085 375.088 281.277 384.386C281.631 385.371 281.986 385.805 283.089 385.765C285.138 385.687 287.068 387.617 287.029 389.705C286.99 390.887 287.502 391.281 288.487 391.597C290.536 392.266 292.506 393.054 294.515 393.803C293.412 393.803 292.309 393.803 291.245 393.803C290.457 393.488 289.629 393.291 288.92 392.857C287.344 391.951 286.202 392.266 285.295 393.803C283.601 393.803 281.868 393.803 280.173 393.803C278.991 392.66 278.991 392.66 277.731 393.803C276.982 393.803 276.233 393.803 275.485 393.803C276.233 393.33 276.982 392.779 277.77 392.345C278.322 392.03 278.597 391.754 278.44 391.006C278.164 389.784 278.361 388.563 279.149 387.499C279.582 386.947 280.016 386.396 280.607 385.647C277.534 376.822 274.303 367.641 271.151 358.422C270.717 357.122 270.205 356.373 268.708 356.57C268.196 356.649 267.881 356.609 267.605 357.122C266.699 358.973 265.753 360.746 264.807 362.598C262.049 367.878 259.291 373.118 256.573 378.398C253.933 383.52 251.254 388.642 248.614 393.764C248.22 393.764 247.787 393.764 247.393 393.764C247.55 393.409 247.708 393.094 247.865 392.739C254.012 380.919 260.158 369.099 266.305 357.279C266.58 356.767 267.25 356.294 266.58 355.467C265.871 354.6 265.241 354.561 264.256 354.994C255.588 358.619 246.92 362.165 238.212 365.75C235.927 366.696 233.642 367.641 231.357 368.587C231.357 369.099 231.357 369.533 231.357 369.927C231.357 371.542 230.648 372.842 229.269 373.551C228.402 373.985 228.402 374.497 228.559 375.246C229.702 381.431 230.845 387.578 231.987 393.764C231.633 393.764 231.317 393.764 230.963 393.764C230.923 393.606 230.805 393.448 230.805 393.291C229.978 388.799 229.15 384.308 228.323 379.816C227.968 377.964 227.614 376.073 227.259 374.221C225.132 374.221 223.595 373.315 222.925 371.424C222.61 370.518 222.177 370.36 221.31 370.36C199.994 370.399 178.679 370.36 157.324 370.36C157.088 370.36 156.812 370.281 156.615 370.36C156.379 370.439 156.103 370.636 155.985 370.833C155.591 371.581 156.3 371.739 156.733 371.975C165.283 376.822 173.872 381.628 182.422 386.435C186.717 388.839 190.972 391.281 195.227 393.724C194.478 393.724 193.73 393.724 192.981 393.724C192.824 393.645 192.705 393.527 192.548 393.448C182.777 387.932 172.966 382.416 163.195 376.9C160.555 375.403 157.915 373.945 155.275 372.448C154.842 372.803 154.527 373.236 154.133 373.394C153.305 373.748 153.345 374.261 153.502 375.009C155.039 381.234 156.576 387.46 158.112 393.724C157.718 393.724 157.285 393.724 156.891 393.724C156.891 393.606 156.93 393.527 156.93 393.409C155.394 387.184 153.896 380.959 152.32 374.733C152.242 374.458 151.769 374.182 151.454 374.142C149.996 374.064 148.853 373.473 148.065 372.291C147.671 371.7 147.317 371.7 146.726 371.897C134.157 375.994 121.628 380.131 109.059 384.189C107.798 384.583 106.695 384.899 107.05 386.553C107.089 386.672 107.01 386.829 106.971 386.947C106.656 387.499 106.932 387.814 107.404 388.09C109.887 389.705 112.369 391.36 114.851 393.015C115.166 393.212 115.403 393.488 115.678 393.724C115.009 393.724 114.299 393.724 113.63 393.724C111.147 391.991 108.665 390.296 106.222 388.602C104.174 390.257 102.322 390.612 100.588 389.548C98.303 388.208 98.0272 386.12 98.6576 383.795C98.4212 383.638 98.2636 383.52 98.106 383.441C91.1322 378.989 84.1978 374.536 77.224 370.084C73.0476 367.405 68.8712 364.765 64.6948 362.125C64.419 361.928 63.9068 361.81 63.631 361.928C62.8036 362.322 62.0156 362.874 61.0306 363.465C61.0306 363.623 61.0306 364.017 61.0306 364.371C61.0306 373.748 61.0306 383.165 61.0306 392.542C61.0306 392.936 61.07 393.37 61.07 393.764C60.676 393.764 60.2426 393.764 59.8486 393.764C59.8486 393.685 59.888 393.645 59.888 393.567C59.888 383.638 59.888 373.748 59.888 363.82C59.888 363.544 59.494 363.15 59.2182 363.032C58.0756 362.638 57.13 361.968 56.6178 360.865C56.3026 360.195 55.948 360.116 55.2782 360.234C46.8466 361.81 38.415 363.347 30.0228 364.883C21.9064 366.381 13.79 367.878 5.6342 369.375C5.3584 369.414 4.925 369.611 4.8462 369.848C4.3734 371.069 4.5704 371.503 5.7524 372.172C17.533 378.87 29.3136 385.568 41.0942 392.266C41.8822 392.7 42.6308 393.251 43.4188 393.724C42.6702 393.724 41.9216 393.724 41.173 393.724C40.976 393.567 40.8184 393.409 40.6214 393.291C37.627 391.597 34.6326 389.863 31.6382 388.169C22.655 383.047 13.6718 377.964 4.6886 372.803C3.6642 372.212 3.4672 373.118 2.9156 373.394C2.3246 373.67 2.561 374.103 2.7186 374.497C3.2702 375.994 3.8218 377.491 4.3734 378.989C6.1464 383.874 7.9588 388.799 9.7318 393.685C9.3378 393.685 8.9044 393.685 8.5104 393.685C8.4316 393.409 8.3922 393.133 8.3134 392.897C6.1464 387.026 3.9794 381.156 1.8124 375.246C1.5366 374.458 1.182 373.945 0.2758 373.985C0.2758 371.109 0.2758 368.232 0.2758 365.356C0.8668 365.396 1.4972 365.435 2.167 365.474C2.167 365.474 2.2458 365.396 2.3246 365.317C6.698 358.067 11.0714 350.857 15.4448 343.607C15.6024 343.371 15.4842 342.819 15.2872 342.583C14.0658 341.165 13.8688 339.589 14.4992 337.894C14.6962 337.303 14.578 337.067 14.184 336.712C12.2534 335.176 10.3622 333.6 8.471 332.063C5.7524 329.896 3.0338 327.729 0.3152 325.562C0.3152 325.089 0.3152 324.617 0.3152 324.144C0.6698 324.38 1.0638 324.617 1.379 324.892C5.8312 328.517 10.3228 332.063 14.6962 335.767C15.563 336.515 15.9964 335.846 16.6268 335.57C17.2966 335.333 17.0602 334.821 16.942 334.388C14.972 324.577 13.0414 314.767 11.1108 304.956C10.5592 302.198 10.0076 299.401 9.4166 296.643C6.9738 296.564 5.4372 295.461 4.728 293.175C4.6492 292.978 4.2158 292.781 3.94 292.781C2.7186 292.742 1.4972 292.781 0.2364 292.742C0.2364 292.387 0.2364 292.072 0.2364 291.718C1.4578 291.718 2.6792 291.718 3.94 291.678C4.2158 291.678 4.5704 291.56 4.6886 291.363C5.2402 290.417 5.713 289.432 6.304 288.25C4.3734 284.704 2.2852 280.922 0.2364 277.179C0.2364 276.43 0.2364 275.682 0.2364 274.933C0.3152 275.012 0.4334 275.091 0.5122 275.209C1.8912 277.77 3.2702 280.331 4.6492 282.853C5.5948 284.586 6.5404 286.32 7.3284 287.817C8.2346 287.817 8.9832 287.659 9.5742 287.856C10.6774 288.211 11.032 287.62 11.5048 286.832C15.9176 279.346 20.4486 271.505 24.9402 263.665C26.201 261.458 27.4618 259.252 28.762 257.046C28.4862 256.77 28.2892 256.573 28.1316 256.376C27.0284 255.076 26.792 253.578 27.3042 252.042C27.8164 250.466 28.959 249.323 30.6138 249.205C31.8352 249.126 32.0716 248.614 32.308 247.59C36.0116 231.317 39.7546 215.045 43.4582 198.773C44.0492 196.173 44.6402 193.612 45.2312 191.011C44.916 191.169 44.7584 191.366 44.6008 191.563C42.8672 193.966 41.0942 196.37 39.3606 198.773C28.368 213.863 17.4148 228.993 6.4222 244.122C4.334 246.999 2.2064 249.835 0.1182 252.712C0.1182 252.042 0.1182 251.333 0.1182 250.663C0.3152 250.466 0.5516 250.269 0.7486 250.032C14.1446 231.593 27.5406 213.193 40.8972 194.754C42.2368 192.902 43.5764 191.051 44.7978 189.317C43.931 187.623 42.8278 187.859 41.37 188.371C32.4262 191.76 23.4036 195.03 14.381 198.3C13.6324 198.576 13.2384 198.891 13.2778 199.797C13.3566 201.807 12.0958 203.462 10.1652 203.974C8.7468 204.328 7.4072 204.131 6.107 203.186C4.0976 205.077 2.0882 206.929 0.1182 208.781C0.1182 208.229 0.1182 207.677 0.1182 207.126C1.8518 205.55 3.5854 203.974 5.2796 202.437C5.2402 202.28 5.2402 202.201 5.2008 202.122C3.7824 199.955 4.6098 196.606 7.2102 195.542C7.4466 195.463 7.6436 194.912 7.6042 194.597C7.289 192.193 6.9738 189.79 6.6192 187.386C4.8068 174.818 2.955 162.21 1.1032 149.641C0.8274 147.671 0.4334 145.701 0.1182 143.731C0.1182 140.776 0.1182 137.861 0.1182 134.906C0.9456 135.063 1.773 135.221 2.758 135.418C8.5498 123.992 14.381 112.487 20.2122 100.903C18.4786 99.5638 17.9664 97.8302 18.518 95.8602C18.715 95.2298 18.518 94.954 18.0452 94.6388C14.3416 92.0778 10.638 89.4774 6.9344 86.9164C4.6492 85.3404 2.364 83.8038 0.0788 82.2278C0.0788 81.755 0.0788 81.2822 0.0788 80.8094C6.501 85.2616 12.9626 89.7532 19.3454 94.2054C21.3942 92.4324 23.443 92.4718 25.5706 93.772C25.7282 93.6144 25.8858 93.4962 26.0434 93.378C31.914 88.0984 37.7452 82.8582 43.6158 77.5786C49.1318 72.6142 54.6478 67.6104 60.1638 62.6066C60.4002 62.4096 60.676 61.8974 60.5972 61.7398C59.888 60.4002 60.0456 59.0212 60.3214 57.6422C48.8954 50.629 37.5088 43.6158 26.1222 36.642C23.7976 38.612 22.3004 38.7302 19.5424 37.1542C17.73 38.6514 15.8782 40.188 14.0658 41.6852C9.3772 45.5464 4.6886 49.4076 0 53.2688C0 52.796 0 52.3232 0 51.8504C6.304 46.6496 12.608 41.4488 18.7544 36.3662C18.5574 35.4994 18.2422 34.8296 18.2816 34.1992C18.321 33.293 17.927 33.0566 17.1784 32.8596C11.4654 31.2836 5.7524 29.6682 0.0394 28.0922C0.1182 27.7376 0.1182 27.383 0.1182 27.0678ZM196.842 267.447C196.685 265.792 197.118 264.374 198.34 263.231C198.497 263.074 198.379 262.522 198.221 262.246C195.739 257.558 193.257 252.909 190.775 248.22C186.283 239.828 181.831 231.396 177.339 223.004C174.069 216.818 170.76 210.632 167.45 204.486C167.332 204.25 166.977 203.974 166.82 204.013C164.692 204.407 162.998 203.816 161.698 202.043C137.742 212.602 113.866 223.162 90.029 233.681C90.3048 236.597 89.832 237.464 87.1134 239.316C87.1528 239.473 87.1528 239.631 87.1922 239.788C88.3742 245.935 89.5562 252.121 90.7776 258.267C93.1022 270.363 95.4662 282.459 97.7514 294.554C97.909 295.421 98.106 296.091 99.2092 296.091C99.6032 296.091 100.076 296.327 100.391 296.603C100.943 297.076 101.416 297.037 102.085 296.84C115.087 292.781 128.089 288.763 141.091 284.704C156.3 279.976 171.469 275.288 186.677 270.56C190.066 269.535 193.415 268.472 196.842 267.447ZM170.247 200.152C170.444 200.191 170.838 200.31 171.193 200.388C181.161 202.555 191.129 204.762 201.098 206.929C210.79 209.056 220.522 211.184 230.214 213.312C230.923 213.469 231.357 213.43 231.751 212.681C232.421 211.46 233.563 210.751 234.982 210.632C236.361 210.514 237.543 210.869 238.606 211.814C254.248 199.522 269.811 187.308 285.059 175.291C285.059 173.518 285.059 172.099 285.059 170.602C266.777 158.073 248.417 145.504 230.057 132.896C228.402 134.393 226.668 134.709 224.698 133.881C224.462 133.763 223.91 133.999 223.713 134.196C218.118 140.54 212.524 146.923 206.968 153.266C197.355 164.219 187.78 175.172 178.167 186.165C175.094 189.672 172.02 193.178 169.065 196.527C169.499 197.788 169.814 198.852 170.247 200.152ZM165.401 195.109C166.268 195.345 166.938 195.621 167.608 195.739C167.883 195.779 168.356 195.66 168.514 195.463C174.148 189.081 179.743 182.698 185.338 176.315C195.621 164.574 205.944 152.793 216.227 141.052C218.591 138.333 220.995 135.615 223.319 132.936C221.822 130.256 221.901 129.193 223.713 126.632C223.871 126.395 223.753 125.804 223.556 125.489C220.128 119.264 216.661 113.078 213.233 106.853C207.008 95.6238 200.743 84.3948 194.518 73.1658C194.242 72.693 194.006 72.5354 193.415 72.5748C192.43 72.6142 191.405 72.3384 190.42 72.2596C190.105 72.2202 189.672 72.299 189.475 72.496C188.411 73.5992 187.426 74.7812 186.401 75.9238C178.6 84.8282 170.76 93.6932 162.958 102.598C160.2 105.71 157.482 108.823 154.763 111.935C156.536 115.048 156.142 116.742 153.227 118.988C153.03 119.146 152.951 119.579 152.99 119.855C153.187 121.352 153.463 122.81 153.699 124.307C155.63 136.127 157.561 147.947 159.491 159.767C160.91 168.474 162.367 177.221 163.786 185.929C164.377 189.002 164.889 192.075 165.401 195.109ZM271.269 254.169C271.545 254.051 271.781 253.933 272.057 253.815C274.027 253.027 276.273 253.618 277.415 255.391C277.809 256.021 278.164 256.061 278.834 255.864C291.718 252.199 304.601 248.535 317.485 244.91C318.588 244.595 319.455 244.359 319.376 242.862C319.337 242.152 320.007 241.404 320.44 240.734C320.637 240.458 321.031 240.301 321.268 240.143C310.984 218.946 300.858 197.985 290.693 177.024C288.96 177.418 287.423 177.142 286.123 175.96C270.481 188.253 254.879 200.507 239.316 212.721C240.222 214.612 240.025 216.306 238.882 217.961C249.678 229.978 260.473 242.034 271.269 254.169ZM50.9048 182.777C51.0624 182.737 51.1412 182.698 51.22 182.658C60.5184 178.206 69.8168 173.754 79.1152 169.302C83.8432 167.056 88.5318 164.771 93.2598 162.525C98.8152 159.885 104.371 157.245 109.887 154.606C110.399 154.369 110.556 154.133 110.478 153.502C110.399 152.793 110.438 152.045 110.675 151.375C110.95 150.666 110.753 150.39 110.202 149.956C98.697 141.17 87.1922 132.384 75.6874 123.598C74.7418 122.889 73.7962 122.179 72.89 121.47C72.6142 121.785 72.4172 122.022 72.1808 122.258C70.2108 124.307 66.9012 124.071 65.3252 121.746C64.8918 121.116 64.5766 121.076 63.9462 121.273C44.8766 126.868 25.807 132.423 6.7374 137.979C5.4766 138.333 4.1764 138.53 4.4522 140.343C4.4522 140.422 4.4522 140.5 4.4128 140.54C4.0976 141.131 4.2946 141.525 4.7674 141.958C9.8106 147.001 14.8538 152.084 19.897 157.127C27.8164 165.047 35.7358 172.966 43.6552 180.925C43.931 181.201 44.2068 181.437 44.4432 181.634C47.083 180.255 48.7378 180.57 50.9048 182.777ZM351.803 288.526C343.016 274.894 334.27 261.301 325.523 247.787C322.804 248.653 320.795 247.865 319.416 245.501C318.707 245.698 318.037 245.895 317.367 246.092C304.601 249.717 291.796 253.342 279.031 256.967C278.361 257.164 278.125 257.44 278.085 258.149C278.046 258.897 277.77 259.685 277.415 260.355C277.179 260.828 277.14 261.104 277.534 261.498C279.031 263.192 280.489 264.886 281.946 266.62C297.825 285.059 313.742 303.498 329.62 321.977C332.457 325.286 335.333 328.596 338.052 331.748C338.958 331.551 339.746 331.315 340.574 331.275C341.243 331.236 341.48 331.039 341.677 330.408C344.986 319.416 348.375 308.384 351.724 297.391C351.881 296.879 351.842 296.643 351.369 296.327C350.03 295.461 349.36 294.2 349.36 292.545C349.439 290.693 350.345 289.511 351.803 288.526ZM270.402 254.879C269.614 253.972 268.866 253.106 268.078 252.239C262.049 245.501 256.021 238.764 249.993 232.027C246.132 227.732 242.31 223.437 238.449 219.143C238.291 218.946 237.897 218.709 237.74 218.788C236.361 219.537 234.903 219.419 233.445 218.985C223.634 233.76 213.863 248.496 204.289 262.956C204.801 264.098 205.392 264.965 205.51 265.911C205.668 266.856 205.392 267.841 205.274 268.905C220.128 279.74 235.1 290.693 250.111 301.646C251.175 300.661 252.396 300.149 253.815 300.346C254.485 300.464 254.76 300.189 255.036 299.598C258.306 291.993 261.616 284.389 264.926 276.785C266.974 272.018 269.063 267.29 271.111 262.522C271.23 262.207 271.23 261.616 271.033 261.419C269.023 259.291 268.826 257.558 270.402 254.879ZM255.667 309.014C255.588 308.975 255.47 308.935 255.391 308.896C255.509 309.211 255.588 309.566 255.706 309.881C259.843 322.292 263.98 334.703 268.038 347.114C268.314 347.902 268.629 348.178 269.457 348.138C271.702 348.099 273.633 349.99 273.594 352.197C273.594 353.103 273.948 353.339 274.697 353.576C287.62 357.358 300.504 361.18 313.388 365.002C321.622 367.444 329.896 369.887 338.131 372.33C338.801 372.527 339.155 372.448 339.628 371.818C340.14 371.148 340.928 370.636 341.716 370.242C342.15 370.005 342.425 369.808 342.386 369.257C342.268 367.641 342.15 365.987 342.031 364.371C341.637 358.343 341.283 352.315 340.889 346.326C340.771 344.238 340.613 342.15 340.495 340.101C337.54 339.392 336.476 338.131 336.397 335.294C336.397 334.664 336.043 334.506 335.57 334.348C325.877 330.921 316.185 327.532 306.493 324.104C295.5 320.243 284.547 316.343 273.554 312.481C268.432 310.669 263.31 308.857 258.188 307.084C257.873 306.965 257.361 307.044 257.164 307.241C256.573 307.753 256.139 308.384 255.667 309.014ZM160.24 313.663C160.122 314.215 160.082 314.688 159.885 315.042C159.491 315.712 159.806 316.067 160.319 316.461C161.579 317.406 162.801 318.391 164.022 319.376C182.107 333.757 200.191 348.178 218.237 362.559C220.01 363.977 221.822 365.396 223.634 366.814C224.659 365.947 225.801 365.474 227.102 365.671C227.771 365.75 228.047 365.474 228.284 364.883C229.663 361.416 231.12 357.91 232.539 354.442C237.661 341.913 242.783 329.423 247.905 316.894C249.008 314.136 250.151 311.418 251.136 308.896C250.308 307.753 249.599 306.768 248.811 305.705C219.34 308.344 189.79 311.024 160.24 313.663ZM228.087 125.528C228.165 125.647 228.205 125.725 228.284 125.844C228.52 125.528 228.796 125.253 228.993 124.937C240.576 105.474 252.199 86.0496 263.783 66.586C267.487 60.3608 271.19 54.1356 274.894 47.9104C275.051 47.6346 275.248 47.2406 275.17 47.0042C274.697 45.7828 273.869 45.4282 272.609 45.7828C256.652 50.3532 240.734 54.963 224.777 59.5334C215.794 62.1338 206.811 64.6948 197.788 67.2558C197.079 67.4528 196.882 67.768 196.803 68.4772C196.685 69.3834 196.33 70.329 195.779 71.0776C195.345 71.708 195.188 72.0232 195.582 72.7324C202.555 85.2616 209.529 97.7908 216.503 110.32C219.222 115.206 221.94 120.091 224.698 124.977C224.856 125.253 225.21 125.528 225.486 125.568C226.353 125.647 227.22 125.568 228.087 125.528ZM160.988 201.098C161.225 199.797 161.304 198.734 161.619 197.788C161.816 197.197 161.776 196.921 161.304 196.527C158.506 194.006 155.788 191.445 153.03 188.884C148.459 184.668 143.928 180.452 139.358 176.197C134.748 171.942 130.138 167.686 125.528 163.431C122.928 161.067 120.367 158.664 118.042 156.536C116.663 156.812 115.56 156.97 114.457 157.245C114.142 157.324 113.787 157.639 113.669 157.955C110.202 167.647 106.774 177.3 103.346 186.992C99.288 198.458 95.2298 209.884 91.1322 221.349C89.9896 224.541 88.8864 227.693 87.7832 230.845C88.453 231.475 89.044 231.987 89.6744 232.578C113.511 222.058 137.348 211.539 160.988 201.098ZM231.002 132.148C249.166 144.559 267.526 157.167 285.729 169.617C286.674 169.144 287.423 168.671 288.25 168.435C288.841 168.277 288.96 168.002 288.999 167.45C289.117 164.85 289.235 162.289 289.393 159.688C289.669 154.527 289.984 149.326 290.299 144.165C290.496 140.422 290.693 136.679 290.89 132.936C291.166 127.853 291.481 122.81 291.757 117.727C291.993 113.866 292.19 109.965 292.387 106.104C292.545 103.425 292.703 100.706 292.821 98.0272C292.821 97.7514 292.703 97.318 292.506 97.1998C291.678 96.6482 290.811 96.2148 289.866 95.6632C289.748 95.742 289.432 95.8602 289.117 96.0572C274.066 104.371 259.016 112.723 243.925 121.037C239.828 123.283 235.73 125.568 231.672 127.853C231.357 128.011 231.081 128.444 231.042 128.799C230.963 129.784 231.002 130.847 231.002 132.148ZM370.321 67.1376C361.416 63.9068 352.157 60.5184 342.898 57.1694C341.007 59.7304 338.525 60.2426 335.767 58.4696C335.57 58.5878 335.412 58.7454 335.215 58.903C328.911 64.1826 322.607 69.4622 316.303 74.7418C310.275 79.785 304.207 84.8676 298.14 89.9108C297.628 90.3442 297.509 90.6594 297.706 91.3292C297.982 92.2354 298.14 93.378 297.825 94.2054C297.431 95.2298 297.785 95.6632 298.455 96.2148C304.365 101.061 310.275 105.907 316.146 110.793C319.022 113.196 321.937 115.56 324.814 117.964C326.626 116.506 328.478 116.506 330.408 117.491C333.482 114.063 336.515 110.714 339.51 107.326C346.168 99.8396 352.866 92.3536 359.525 84.8676C363.386 80.5336 367.247 76.239 371.109 71.8656C371.306 71.6292 371.503 71.2352 371.424 70.9988C371.187 69.738 370.793 68.5954 370.321 67.1376ZM64.3008 360.943C75.8844 368.351 87.468 375.718 98.894 383.047C99.879 382.495 100.706 381.983 101.652 381.431C101.652 381.431 101.652 381.274 101.652 381.156C101.494 377.767 101.297 374.339 101.14 370.951C100.903 366.105 100.628 361.298 100.391 356.452C100.155 351.645 99.879 346.838 99.6426 342.071C99.485 338.722 99.3274 335.412 99.1698 332.063C98.9334 327.296 98.6182 322.528 98.3818 317.761C98.1848 313.663 97.9878 309.605 97.7514 305.508C97.7514 305.271 97.5544 304.917 97.3574 304.798C96.2542 304.168 95.151 303.616 93.8508 302.947C84.4342 307.32 74.7418 311.812 65.0494 316.303C64.5766 316.54 64.4584 316.776 64.4978 317.328C64.6948 319.81 63.631 321.543 61.5034 322.213C60.7548 322.45 60.6366 322.765 60.676 323.435C60.7548 329.463 60.7942 335.53 60.7942 341.559C60.7942 344.514 60.7942 347.508 60.7942 350.463C60.7942 351.842 60.7942 353.182 60.7942 354.521C64.1826 355.821 65.1676 357.594 64.3008 360.943ZM98.8546 304.72C98.8546 304.917 98.8152 304.995 98.8152 305.114C99.2092 312.245 99.5638 319.337 99.9578 326.468C100.234 331.59 100.47 336.673 100.746 341.795C101.1 348.729 101.455 355.664 101.81 362.638C102.085 368.272 102.401 373.945 102.676 379.58C102.755 381.471 102.795 381.471 104.646 382.101C120.643 360.352 136.6 338.604 152.478 317.052C152.045 315.949 151.493 315.082 151.414 314.136C151.335 313.23 150.981 313.033 150.232 312.875C143.455 311.339 136.639 309.802 129.862 308.226C120.919 306.177 111.975 304.129 102.992 302.119C102.676 302.04 102.125 302.198 102.007 302.395C101.297 303.577 100.273 304.326 98.8546 304.72ZM337.343 332.497C335.767 330.684 334.191 328.832 332.575 326.981C317.525 309.526 302.513 292.072 287.462 274.657C283.916 270.56 280.37 266.423 276.864 262.325C276.47 261.852 276.155 261.655 275.485 261.971C274.854 262.246 274.066 262.365 273.397 262.286C272.569 262.207 272.333 262.562 272.057 263.192C270.836 266.068 269.575 268.944 268.314 271.821C264.216 281.277 260.119 290.733 255.982 300.189C255.785 300.701 255.706 301.016 256.179 301.41C257.282 302.316 257.873 303.459 257.715 304.917C257.637 305.586 257.952 305.862 258.582 306.059C271.072 310.433 283.562 314.845 296.052 319.258C309.251 323.907 322.45 328.557 335.649 333.245C336.515 333.521 337.067 333.521 337.343 332.497ZM83.2916 230.923C84.3554 230.766 85.1434 230.608 85.9314 230.569C86.5224 230.569 86.7588 230.332 86.9558 229.82C88.9258 224.265 90.8958 218.67 92.8658 213.115C96.727 202.201 100.588 191.287 104.489 180.373C107.207 172.73 109.926 165.125 112.605 157.482C112.684 157.245 112.684 156.812 112.526 156.615C112.093 156.103 111.541 155.709 111.029 155.275C102.401 159.412 93.8114 163.51 85.2222 167.608C78.8 170.681 72.4172 173.715 65.995 176.788C61.3852 178.994 56.736 181.201 52.1262 183.446C51.8504 183.604 51.4564 184.037 51.4958 184.274C51.6928 185.81 51.3776 187.189 50.3138 188.371C61.3458 202.634 72.3778 216.858 83.2916 230.923ZM293.648 172.651C293.609 174.03 293.215 175.133 292.23 175.96C291.757 176.394 291.757 176.709 291.993 177.261C295.342 184.156 298.652 191.011 302.001 197.906C308.463 211.263 314.964 224.659 321.386 238.055C321.898 239.158 322.489 239.552 323.671 239.394C324.262 239.316 324.498 239.158 324.656 238.606C325.208 236.755 325.877 234.903 326.468 233.051C332.575 214.257 338.643 195.503 344.75 176.709C345.696 173.833 346.641 170.957 347.469 168.356C346.681 167.332 346.05 166.465 345.341 165.638C345.144 165.401 344.75 165.244 344.435 165.283C342.662 165.48 340.928 165.756 339.155 165.992C328.084 167.608 317.012 169.223 305.941 170.838C301.883 171.429 297.825 172.02 293.648 172.651ZM69.1076 59.297C69.2258 59.297 69.344 59.3364 69.5016 59.3364C77.815 60.0456 86.1284 60.7154 94.4418 61.4246C100.864 61.9368 107.286 62.4884 113.708 63.0006C114.181 63.04 114.733 63.3946 115.048 62.5672C115.324 61.7792 115.442 61.267 114.733 60.6366C112.448 58.6666 110.281 56.6178 108.074 54.6084C100.312 47.5558 92.5112 40.5032 84.7494 33.4112C77.7362 27.0284 70.723 20.6456 63.7098 14.2628C63.5128 14.0658 63.04 13.9476 62.843 14.0658C60.6366 15.3266 58.6666 15.0114 56.8148 13.2778C56.4996 13.4354 56.2238 13.593 55.948 13.79C52.3626 16.0358 48.7772 18.2816 45.1918 20.5274C39.3606 24.1916 33.49 27.8164 27.6588 31.52C27.383 31.717 27.0284 32.0716 27.0284 32.3474C26.989 33.4506 27.1072 34.5538 27.186 35.8934C38.3362 42.749 49.7622 49.7228 61.1488 56.736C63.828 53.8204 68.3984 54.963 69.1076 59.297ZM73.481 118.515C77.9726 118.279 82.5036 118.003 86.9952 117.767C91.3292 117.53 95.6238 117.333 99.9578 117.097C104.686 116.86 109.414 116.624 114.142 116.388C117.451 116.23 120.761 116.072 124.071 115.875C128.838 115.639 133.605 115.363 138.373 115.087C141.013 114.93 143.613 114.812 146.253 114.654C146.489 114.654 146.883 114.496 146.962 114.299C147.592 113.196 148.183 112.014 148.774 110.872C148.971 110.872 148.893 110.753 148.814 110.635C144.165 103.819 139.555 97.0422 134.906 90.226C130.059 83.0946 125.213 76.0026 120.328 68.9106C120.131 68.6348 119.776 68.3984 119.461 68.3196C118.515 68.1226 117.53 68.0044 116.427 67.8468C101.81 83.922 87.074 100.115 72.3778 116.309C72.8112 117.057 73.1264 117.767 73.481 118.515ZM152.281 365.671C153.818 366.105 155.039 366.932 155.472 368.39C155.748 369.375 156.26 369.493 157.127 369.493C178.206 369.493 199.285 369.493 220.404 369.493C222.177 369.493 222.177 369.493 222.846 367.878C222.846 367.838 222.846 367.799 222.807 367.641C201.531 350.699 180.216 333.718 158.979 316.815C158.152 317.209 157.403 317.643 156.654 317.8C155.985 317.958 155.906 318.234 155.866 318.825C155.669 322.016 155.394 325.208 155.157 328.399C154.724 334.23 154.29 340.101 153.818 345.932C153.502 349.99 153.187 354.009 152.872 358.067C152.636 360.589 152.478 363.11 152.281 365.671ZM161.501 35.7752C161.382 35.2236 161.185 34.7508 161.225 34.3174C161.304 33.49 160.91 33.293 160.2 33.1748C151.02 31.1654 141.801 29.0772 132.62 27.0284C112.132 22.458 91.6838 17.927 71.2352 13.3566C68.9894 12.8444 66.7436 12.3716 64.5766 11.8988C63.7886 12.6474 64.0644 13.1202 64.6948 13.6718C65.6798 14.4992 66.6254 15.4054 67.6104 16.2722C72.8506 21.0396 78.0908 25.8464 83.331 30.6138C88.6106 35.4206 93.8902 40.188 99.1698 44.9948C104.725 50.038 110.241 55.1206 115.836 60.1244C116.033 60.3214 116.545 60.2426 116.86 60.2032C117.727 60.0456 118.594 59.494 119.382 59.6122C120.564 59.7698 121.707 60.3608 123.125 60.8336C135.654 52.6384 148.577 44.2068 161.501 35.7752ZM160.161 312.56C189.75 309.92 219.34 307.241 248.89 304.601C249.087 303.853 249.244 303.222 249.441 302.553C234.469 291.599 219.458 280.686 204.762 269.929C203.501 270.363 202.516 270.875 201.531 270.954C200.546 271.033 199.482 270.639 198.3 270.442C185.377 283.759 172.296 297.234 159.255 310.669C159.609 311.378 159.885 311.969 160.161 312.56ZM203.383 262.325C212.996 247.787 222.768 233.051 232.302 218.67C231.711 217.094 231.239 215.873 230.687 214.494C230.569 214.454 230.214 214.375 229.82 214.297C210.396 210.041 190.932 205.826 171.508 201.531C170.366 201.295 169.459 201.058 169.026 202.437C168.987 202.555 168.868 202.674 168.75 202.752C168.199 203.146 168.199 203.58 168.514 204.131C169.656 206.22 170.76 208.347 171.902 210.475C176.591 219.3 181.319 228.126 186.007 236.952C190.42 245.226 194.833 253.539 199.246 261.813C199.403 262.089 199.837 262.286 200.152 262.325C201.176 262.365 202.161 262.325 203.383 262.325ZM33.8052 257.282C33.9234 257.518 33.9628 257.676 34.0416 257.834C42.158 276.155 50.3138 294.436 58.3908 312.757C58.8242 313.742 59.494 313.506 60.1638 313.585C60.9518 313.663 61.0306 313.072 61.1882 312.6C62.2914 308.975 63.434 305.35 64.5372 301.725C70.329 283.01 76.0814 264.295 81.8732 245.58C82.543 243.413 83.2128 241.207 83.6462 239.749C82.74 238.646 82.1096 237.897 81.4004 237.03C81.5186 236.991 81.361 237.03 81.2428 237.07C72.496 240.064 63.7492 243.059 54.963 246.053C48.856 248.141 42.749 250.19 36.642 252.318C36.3268 252.436 35.854 252.869 35.854 253.145C35.9722 254.879 35.263 256.218 33.8052 257.282ZM291.757 88.8076C291.678 88.5318 291.639 88.2954 291.56 88.0984C288.447 78.2484 285.374 68.4378 282.262 58.5878C281.237 55.3176 280.213 52.0868 279.149 48.8166C279.031 48.5014 278.676 48.1074 278.322 48.0286C277.691 47.871 276.982 47.871 276.233 47.8316C275.209 49.5652 274.185 51.2988 273.121 53.0718C258.74 77.224 244.359 101.337 229.938 125.489C229.466 126.316 229.505 126.789 230.411 127.183C234.154 125.134 237.897 123.046 241.68 120.958C251.214 115.678 260.749 110.438 270.284 105.159C276.43 101.77 282.577 98.3424 288.723 94.9146C288.999 94.757 289.393 94.3236 289.354 94.0872C288.96 91.802 289.669 90.029 291.757 88.8076ZM118.515 155.433C133.29 169.105 147.986 182.658 162.683 196.251C163.274 195.936 163.746 195.66 164.298 195.345C160.122 170.011 155.985 144.677 151.848 119.54C150.666 119.224 149.681 118.949 148.577 118.633C138.57 129.035 128.444 139.515 118.358 149.996C119.5 151.808 119.618 153.581 118.515 155.433ZM121.313 68.2802C121.352 68.359 121.549 68.6348 121.746 68.9106C125.962 75.1358 130.217 81.3216 134.433 87.5468C139.476 94.954 144.559 102.401 149.602 109.808C149.996 110.359 150.39 110.596 151.099 110.596C151.808 110.556 152.596 110.714 153.266 110.99C153.778 111.187 154.054 111.069 154.409 110.714C156.142 108.705 157.915 106.695 159.649 104.725C165.795 97.7514 171.902 90.817 178.049 83.8432C181.713 79.6668 185.377 75.4904 189.002 71.3928C188.608 70.4078 188.214 69.541 187.859 68.5954C185.141 68.4378 182.383 68.2802 179.625 68.1226C175.251 67.8862 170.917 67.6104 166.544 67.374C162.367 67.1376 158.191 66.8618 153.975 66.6254C149.681 66.389 145.386 66.1526 141.131 65.9162C138.018 65.7192 134.945 65.5222 131.832 65.3646C129.35 65.207 126.868 65.0888 124.386 64.9706C124.071 64.9706 123.637 65.1676 123.401 65.404C122.731 66.2314 122.101 67.177 121.313 68.2802ZM369.375 226.235C367.484 220.482 365.632 214.848 363.78 209.214C359.407 195.936 355.073 182.698 350.699 169.42C350.502 168.829 350.424 168.317 349.517 168.317C348.69 168.317 348.532 168.711 348.296 169.341C346.72 174.306 345.065 179.27 343.45 184.234C337.579 202.24 331.748 220.285 325.877 238.291C325.602 239.197 325.444 239.867 326.429 240.379C326.744 240.537 327.02 240.892 327.178 241.207C327.493 241.995 328.005 241.877 328.675 241.719C334.151 240.143 339.628 238.606 345.105 237.07C351.921 235.139 358.698 233.209 365.474 231.278C365.79 231.199 366.262 230.845 366.262 230.608C366.341 228.441 367.484 227.141 369.375 226.235ZM197.079 268.511C165.401 278.361 133.684 288.172 102.007 298.022C102.164 298.691 102.44 299.243 102.401 299.795C102.361 300.622 102.716 300.819 103.425 300.977C118.791 304.483 134.118 307.99 149.444 311.496C150.666 311.772 151.808 312.127 152.399 310.551C152.399 310.511 152.439 310.511 152.478 310.472C154.015 308.857 155.748 308.66 158.427 309.802C158.664 309.566 158.9 309.369 159.137 309.093C163.313 304.798 167.489 300.464 171.705 296.13C177.773 289.905 183.801 283.68 189.869 277.494C192.233 275.051 194.636 272.609 197 270.166C197.512 269.693 197.867 269.181 197.079 268.511ZM35.7358 251.411C35.657 251.411 35.8146 251.411 35.9328 251.372C44.9554 248.299 53.978 245.226 62.9612 242.152C68.7924 240.143 74.663 238.173 80.4942 236.124C80.8094 236.006 81.2822 235.573 81.2822 235.297C81.2428 233.957 81.6368 232.815 82.5036 231.83C82.3854 231.633 82.2672 231.436 82.149 231.278C71.6292 217.724 61.1488 204.21 50.629 190.657C49.9198 189.75 49.3682 188.647 47.9498 189.553C47.9104 189.593 47.8316 189.593 47.7528 189.593C46.7678 189.396 46.5708 189.987 46.4132 190.775C43.5764 203.304 40.7002 215.794 37.824 228.284C36.2874 234.942 34.7508 241.601 33.2536 248.259C33.1748 248.614 33.2536 249.205 33.49 249.481C34.1204 250.151 34.869 250.663 35.7358 251.411ZM69.2652 114.733C69.8562 114.93 70.3684 115.009 70.8018 115.245C71.4322 115.6 71.7868 115.363 72.1808 114.93C77.4604 109.099 82.74 103.307 88.0196 97.515C92.8264 92.196 97.6332 86.9164 102.479 81.5974C106.774 76.8694 111.108 72.102 115.403 67.3346C115.56 67.1376 115.639 66.7436 115.521 66.4678C115.245 65.7192 114.89 64.9706 114.536 64.1432C99.3668 62.8824 84.119 61.6216 69.1076 60.4002C68.556 61.2276 68.2014 62.0156 67.6104 62.5672C67.0194 63.1582 66.2314 63.5128 65.404 64.0644C66.7042 80.8882 68.0044 97.7908 69.2652 114.733ZM347.981 159.728C348.414 159.688 348.729 159.57 349.084 159.609C349.99 159.767 350.227 159.294 350.424 158.506C351.724 153.463 353.103 148.42 354.442 143.377C358.934 126.632 363.426 109.887 367.878 93.1022C369.651 86.5224 371.424 79.9032 373.157 73.284C373.236 72.9294 373.039 72.5354 372.96 72.1414C372.606 72.299 372.172 72.3778 371.936 72.6536C366.065 79.194 360.195 85.7738 354.324 92.3536C348.217 99.2092 342.11 106.065 336.003 112.881C334.427 114.654 332.891 116.388 331.315 118.161C332.891 120.682 332.654 122.928 330.408 124.898C336.318 136.56 342.15 148.144 347.981 159.728ZM147.041 115.875C145.662 115.875 144.401 115.836 143.101 115.875C138.412 116.112 133.724 116.388 128.996 116.624C125.647 116.782 122.337 116.939 118.988 117.097C113.63 117.373 108.311 117.688 102.952 118.003C98.9728 118.2 94.9934 118.358 91.014 118.594C85.498 118.87 79.982 119.185 74.466 119.5C74.1114 119.54 73.7568 119.737 73.4022 119.855C73.5992 120.209 73.7962 120.564 74.0326 120.879C74.1508 121.037 74.3478 121.116 74.5054 121.273C84.8676 129.193 95.2298 137.112 105.592 145.031C107.641 146.568 109.65 148.105 111.699 149.681C113.314 148.341 115.009 148.026 116.821 148.893C117.451 149.208 117.767 149.09 118.2 148.617C120.485 146.213 122.77 143.81 125.056 141.446C132.226 133.999 139.397 126.553 146.647 119.106C147.514 118.2 148.144 117.491 147.238 116.348C147.08 116.191 147.041 115.954 147.041 115.875ZM296.879 96.2542C295.933 96.6088 295.145 96.8846 294.397 97.2392C294.2 97.318 293.924 97.6332 293.924 97.8696C293.648 102.676 293.372 107.483 293.136 112.251C292.821 117.924 292.506 123.637 292.19 129.311C291.954 133.842 291.678 138.373 291.442 142.904C291.284 146.016 291.127 149.09 290.969 152.202C290.693 157.206 290.378 162.21 290.102 167.214C290.063 167.805 290.023 168.356 290.851 168.632C291.678 168.908 291.796 168.356 292.112 167.962C300.07 157.403 307.99 146.804 315.909 136.245C318.864 132.305 321.859 128.326 324.814 124.346C323.435 122.77 323.159 121.076 323.947 119.185C324.026 118.988 323.868 118.555 323.671 118.358C322.686 117.491 321.622 116.663 320.598 115.797C312.639 109.256 304.72 102.716 296.879 96.2542ZM335.018 57.524C334.821 56.8542 334.467 56.3026 334.506 55.751C334.545 54.8448 334.073 54.6872 333.363 54.569C316.658 51.4564 299.952 48.3044 283.247 45.1524C282.616 45.0342 282.262 45.113 281.946 45.7434C281.671 46.295 281.198 46.8466 280.686 47.2012C280.095 47.5952 279.976 47.9104 280.213 48.6196C283.365 58.4696 286.438 68.359 289.551 78.209C290.536 81.361 291.521 84.513 292.584 87.665C292.703 87.9802 293.057 88.3742 293.372 88.4924C294.436 88.8076 295.579 89.0046 296.997 89.3198C309.487 78.9182 322.253 68.2014 335.018 57.524ZM292.506 169.302C293.018 171.823 294.633 171.548 296.327 171.114C296.682 171.035 297.076 171.035 297.431 170.957C311.457 168.908 325.523 166.859 339.549 164.81C341.401 164.534 343.213 164.259 345.105 163.983C345.065 162.289 345.853 161.146 346.996 160.2C341.125 148.538 335.294 136.915 329.542 125.528C328.438 125.45 327.532 125.568 326.705 125.331C325.877 125.095 325.523 125.253 325.05 125.883C316.461 137.388 307.832 148.893 299.204 160.397C296.918 163.431 294.633 166.465 292.506 169.302ZM196.645 66.4678C198.537 65.9162 200.507 65.3646 202.477 64.7736C225.801 58.0756 249.166 51.3776 272.49 44.6796C273.357 44.4432 273.751 44.1674 273.791 43.143C273.869 41.9216 273.003 41.8428 272.333 41.5276C263.428 37.3118 254.485 33.096 245.541 28.9196C243.453 27.9346 241.364 26.9496 239.237 25.9646C237.543 28.0134 235.533 28.4862 233.169 27.383C232.972 27.3042 232.539 27.4618 232.342 27.6194C231.633 28.2892 231.002 28.9984 230.332 29.6682C226.235 34.0022 222.137 38.2968 218 42.552C210.908 49.9198 203.777 57.327 196.645 64.6554C196.015 65.3252 195.897 65.7586 196.645 66.4678ZM62.0156 313.782C62.5672 314.254 63.04 314.53 63.3946 314.964C63.828 315.515 64.222 315.476 64.7736 315.2C74.1902 310.787 83.6462 306.414 93.1022 302.04C93.575 301.843 93.772 301.607 93.6932 301.055C93.4962 299.401 93.969 297.943 95.3086 296.879C95.7814 296.524 96.3724 296.249 96.924 295.933C93.2992 277.1 89.6744 258.306 86.0102 239.513C85.0646 239.119 84.8282 239.67 84.5918 240.34C82.9764 245.659 81.3216 250.978 79.6668 256.297C74.7024 272.412 69.738 288.526 64.7736 304.641C63.8674 307.675 62.9218 310.748 62.0156 313.782ZM195.148 64.6948C196.764 63.0006 198.3 61.3852 199.876 59.7304C204.959 54.4508 210.002 49.2106 215.085 43.931C220.522 38.2968 225.998 32.6232 231.436 26.989C231.79 26.595 232.066 26.3192 231.672 25.7676C231.317 25.2554 231.199 24.6644 230.293 24.822C226.589 25.4524 222.886 25.9252 219.143 26.4768C204.722 28.6044 190.341 30.6926 175.921 32.8202C173.951 33.096 171.981 33.4112 170.287 33.6476C169.775 34.9478 169.341 35.9722 168.908 37.1148C175.96 46.1374 183.052 55.2388 190.184 64.3796C191.878 63.631 193.493 63.6704 195.148 64.6948ZM61.5034 63.0006C59.1 65.207 56.6178 67.4528 54.1356 69.6592C45.0736 77.815 35.9722 86.0102 26.9102 94.166C26.7132 94.363 26.6344 94.8358 26.6738 95.1904C26.7526 96.0572 27.0678 96.924 27.0284 97.7908C26.989 98.4606 27.1466 98.7364 27.7376 99.0122C38.021 103.898 48.265 108.783 58.5484 113.669C60.7548 114.733 62.9612 115.757 64.9706 116.742C65.9162 116.112 66.6648 115.481 67.4922 115.127C68.0832 114.851 68.162 114.575 68.1226 114.063C67.8862 111.187 67.6498 108.311 67.4134 105.395C67.0194 100.391 66.6648 95.3874 66.3102 90.3836C65.798 83.5674 65.2858 76.7118 64.7736 69.8956C64.616 67.9256 64.4584 65.9556 64.3402 64.1038C63.3946 63.7492 62.5278 63.3946 61.5034 63.0006ZM154.842 317.958C154.133 317.643 153.66 317.249 153.03 318.116C139.121 337.106 125.134 356.097 111.187 375.088C109.296 377.649 107.444 380.21 105.592 382.732C106.577 384.111 106.577 384.071 108.035 383.598C120.761 379.461 133.487 375.324 146.213 371.187C146.844 370.99 147.041 370.675 147.041 370.045C147.041 367.838 148.38 366.184 150.508 365.75C151.138 365.632 151.257 365.356 151.296 364.805C151.414 362.519 151.611 360.234 151.769 357.988C152.202 352.118 152.675 346.247 153.148 340.377C153.463 336.318 153.778 332.221 154.093 328.163C154.33 324.735 154.566 321.346 154.842 317.958ZM326.468 247.117C326.665 247.432 326.862 247.708 327.02 248.023C330.093 252.83 333.206 257.597 336.279 262.404C341.677 270.796 347.114 279.149 352.472 287.581C352.906 288.211 353.418 288.25 353.93 288.132C354.206 288.053 354.482 287.62 354.561 287.265C357.476 276.233 360.392 265.201 363.307 254.209C364.962 247.865 366.656 241.522 368.272 235.179C368.351 234.863 368.311 234.43 368.154 234.194C367.602 233.524 366.972 232.893 366.341 232.184C366.302 232.184 366.105 232.224 365.947 232.263C359.249 234.154 352.551 236.045 345.853 237.937C340.18 239.552 334.506 241.167 328.832 242.783C328.478 242.901 327.966 243.295 327.966 243.531C328.044 244.989 327.453 246.132 326.468 247.117ZM29.6682 257.715C23.6794 268.078 17.6512 278.519 11.7412 288.802C12.2928 289.708 12.8838 290.457 13.1596 291.324C13.396 292.19 13.2778 293.136 13.3172 294.121C27.6194 301.213 42.0004 308.344 56.342 315.476C56.8542 314.964 57.2876 314.53 57.7604 314.057C57.721 313.939 57.6422 313.742 57.5634 313.545C49.4076 295.224 41.2912 276.864 33.1354 258.503C32.899 257.952 32.5838 257.755 31.9928 257.794C31.2836 257.873 30.535 257.755 29.6682 257.715ZM43.34 182.186C30.1804 169.105 16.745 155.827 3.3096 142.549C2.9944 142.746 2.5216 143.14 1.97 143.377C1.4972 143.613 1.379 143.849 1.4578 144.401C1.97 147.789 2.4428 151.138 2.9156 154.527C4.4522 165.086 5.9888 175.645 7.5254 186.204C7.9588 189.199 8.3922 192.193 8.865 195.266C10.3228 195.266 11.5836 195.779 12.3716 196.921C12.8444 197.591 13.2778 197.512 13.9082 197.276C20.8426 194.715 27.8164 192.193 34.7902 189.632C37.4694 188.647 40.1486 187.662 42.552 186.756C42.8278 185.18 43.0642 183.801 43.34 182.186ZM162.17 36.6814C149.168 45.1524 136.245 53.584 123.322 62.0156C123.44 62.646 123.558 63.1582 123.716 63.7492C124.859 63.828 125.962 63.8674 127.104 63.9462C131.99 64.222 136.915 64.4978 141.801 64.813C144.716 64.9706 147.671 65.1282 150.587 65.2858C155.472 65.5616 160.397 65.8768 165.283 66.192C169.578 66.4284 173.872 66.6648 178.167 66.9406C181.201 67.0982 184.234 67.2952 187.268 67.4528C187.583 67.4528 188.096 67.374 188.214 67.1376C188.647 66.5072 188.923 65.7586 189.278 65.0494C186.204 61.1094 183.131 57.1694 180.019 53.19C176.157 48.2256 172.296 43.2612 168.396 38.3362C168.199 38.0998 167.686 37.824 167.45 37.9028C165.441 38.5332 163.707 38.2574 162.17 36.6814ZM26.4768 99.6032C25.2554 101.258 23.64 101.81 21.7488 101.534C21.5124 101.494 21.079 101.81 20.9608 102.046C15.2478 113.275 9.5742 124.504 3.8612 135.733C3.546 136.403 3.7824 136.836 4.137 137.191C4.334 137.388 4.8856 137.388 5.2008 137.27C24.3098 131.714 43.3794 126.119 62.4884 120.564C64.4978 119.973 64.4978 119.973 64.7342 118.003C64.7342 117.964 64.7342 117.924 64.6948 117.806C52.008 111.778 39.2818 105.71 26.4768 99.6032ZM264.926 353.654C264.571 351.409 265.241 349.636 267.29 348.454C267.171 348.099 267.093 347.784 266.974 347.469C262.916 335.255 258.858 323.041 254.8 310.827C254.209 309.093 254.209 309.093 252.396 309.093C252.357 309.093 252.278 309.132 252.16 309.211C251.214 311.496 250.269 313.86 249.323 316.185C244.595 327.769 239.828 339.352 235.1 350.975C233.13 355.743 231.199 360.51 229.229 365.277C228.993 365.868 228.953 366.262 229.544 366.656C229.938 366.932 230.254 367.366 230.648 367.799C242.034 363.11 253.46 358.422 264.926 353.654ZM12.1352 295.736C12.2534 295.933 12.3716 296.091 12.4898 296.249C27.4224 315.594 42.355 334.939 57.2876 354.285C57.7998 354.955 58.1938 355.033 58.9818 354.797C59.8092 354.561 59.691 354.048 59.691 353.457C59.6516 343.883 59.6516 334.309 59.6122 324.774C59.6122 324.301 59.5728 323.829 59.6122 323.356C59.691 322.686 59.494 322.371 58.7454 322.134C56.8542 321.583 55.7116 319.928 55.751 317.958C55.751 317.446 55.7904 316.973 55.8298 316.461C55.3964 316.224 55.0024 316.027 54.6084 315.83C45.9404 311.536 37.3118 307.241 28.6438 302.947C23.6006 300.425 18.5574 297.943 13.5142 295.421C13.002 295.185 12.4898 294.87 12.1352 295.736ZM389.508 369.848C389.863 367.996 389.863 367.996 388.366 367.05C377.728 360.155 367.09 353.26 356.452 346.405C352.63 343.923 348.808 341.48 344.986 338.998C344.671 338.801 344.238 338.485 344.001 338.604C343.135 339.037 342.347 339.628 341.559 340.14C341.48 340.18 341.519 340.416 341.519 340.534C341.677 343.213 341.834 345.893 342.031 348.611C342.347 353.576 342.662 358.54 343.016 363.504C343.174 365.632 343.292 367.76 343.41 369.887C345.38 370.163 346.641 371.148 347.35 372.921C347.429 373.157 347.823 373.433 348.06 373.394C351.921 373.079 355.782 372.763 359.683 372.409C366.499 371.818 373.315 371.227 380.171 370.636C383.283 370.399 386.396 370.124 389.508 369.848ZM57.0118 355.782C56.8936 355.585 56.7754 355.427 56.6178 355.27C48.265 344.474 39.9122 333.639 31.5988 322.844C25.019 314.294 18.3998 305.744 11.7806 297.234C11.5442 296.918 11.0714 296.8 10.7168 296.603C10.638 296.997 10.4804 297.391 10.5198 297.746C11.82 304.404 13.1202 311.063 14.4598 317.722C15.563 323.356 16.7056 328.951 17.8482 334.585C17.927 334.939 18.2422 335.452 18.518 335.491C21.4336 335.924 22.8126 337.5 22.655 340.416C22.6156 341.086 22.8126 341.362 23.4036 341.637C34.081 346.484 44.7584 351.369 55.4358 356.255C56.145 356.531 56.6572 356.688 57.0118 355.782ZM361.574 23.1278C354.994 32.6626 348.414 42.1974 341.834 51.7322C342.741 52.6778 343.371 53.7416 343.253 55.0812C343.174 55.8692 343.489 56.1844 344.238 56.4602C350.778 58.8242 357.319 61.1882 363.859 63.5916C366.302 64.4584 368.705 65.3646 370.99 66.192C371.66 65.5616 372.133 64.9312 372.724 64.5766C373.394 64.1826 373.512 63.8674 373.354 63.1188C370.399 50.4714 367.444 37.824 364.529 25.1372C364.292 24.1522 364.174 23.2854 362.795 23.4824C362.441 23.5218 362.086 23.2854 361.574 23.1278ZM4.531 368.626C4.8856 368.587 5.2796 368.508 5.6736 368.429C9.653 367.72 13.593 366.972 17.533 366.223C29.944 363.938 42.355 361.653 54.766 359.367C55.2388 359.289 55.7904 359.367 55.8298 358.579C55.8692 357.87 55.6722 357.516 55.0024 357.2C44.5614 352.472 34.1204 347.705 23.7188 342.898C22.7338 342.425 22.0246 342.189 21.1184 343.213C20.5668 343.804 19.503 344.041 18.6362 344.198C17.9664 344.317 17.2178 344.12 16.4298 344.041C12.017 351.527 7.486 359.013 2.9944 366.42C3.5066 367.169 3.9794 367.838 4.531 368.626ZM335.452 19.1878C336.594 29.7076 337.776 40.188 338.919 50.5896C339.707 50.7866 340.337 50.9048 340.968 51.0624C347.547 41.5276 354.127 31.9928 360.51 22.7732C359.919 21.3942 359.486 20.291 358.973 19.0302C352.551 18.0846 345.893 17.0996 339.273 16.1146C339.076 16.0752 338.682 16.2328 338.643 16.3904C338.013 17.8088 336.949 18.6756 335.452 19.1878Z" fill="#07225E"/>
</svg>
